<?xml version="1.0" encoding="UTF-8" standalone="no"?>
<!-- Uploaded to: SVG Repo, www.svgrepo.com, Generator: SVG Repo Mixer Tools -->

<svg
   width="800px"
   height="800px"
   viewBox="-3 0 20 20"
   version="1.1"
   id="svg1"
   sodipodi:docname="pin.svg"
   inkscape:version="1.4.2 (ebf0e940d0, 2025-05-08)"
   xmlns:inkscape="http://www.inkscape.org/namespaces/inkscape"
   xmlns:sodipodi="http://sodipodi.sourceforge.net/DTD/sodipodi-0.dtd"
   xmlns="http://www.w3.org/2000/svg"
   xmlns:svg="http://www.w3.org/2000/svg">
  <sodipodi:namedview
     id="namedview1"
     pagecolor="#ffffff"
     bordercolor="#000000"
     borderopacity="0.25"
     inkscape:showpageshadow="2"
     inkscape:pageopacity="0.0"
     inkscape:pagecheckerboard="0"
     inkscape:deskcolor="#d1d1d1"
     inkscape:zoom="0.52"
     inkscape:cx="399.03846"
     inkscape:cy="400"
     inkscape:window-width="965"
     inkscape:window-height="1179"
     inkscape:window-x="0"
     inkscape:window-y="21"
     inkscape:window-maximized="1"
     inkscape:current-layer="svg1" />
  <title
     id="title1">pin_sharp_circle [#624]</title>
  <desc
     id="desc1">Created with Sketch.</desc>
  <defs
     id="defs1" />
  <g
     id="Page-1"
     stroke="none"
     stroke-width="1"
     fill="none"
     fill-rule="evenodd"
     style="fill:#ffffff">
    <g
       id="Dribbble-Light-Preview"
       transform="translate(-223.000000, -5439.000000)"
       fill="#000000"
       style="fill:#ffffff">
      <g
         id="icons"
         transform="translate(56.000000, 160.000000)"
         style="fill:#ffffff">
        <path
           d="M176,5286.219 C176,5287.324 175.105,5288.219 174,5288.219 C172.895,5288.219 172,5287.324 172,5286.219 C172,5285.114 172.895,5284.219 174,5284.219 C175.105,5284.219 176,5285.114 176,5286.219 M174,5296 C174,5296 169,5289 169,5286 C169,5283.243 171.243,5281 174,5281 C176.757,5281 179,5283.243 179,5286 C179,5289 174,5296 174,5296 M174,5279 C170.134,5279 167,5282.134 167,5286 C167,5289.866 174,5299 174,5299 C174,5299 181,5289.866 181,5286 C181,5282.134 177.866,5279 174,5279"
           id="pin_sharp_circle-[#624]"
           style="fill:#ffffff" />
      </g>
    </g>
  </g>
</svg>
